<svg width="193" height="130" viewBox="0 0 193 130" fill="none" xmlns="http://www.w3.org/2000/svg">
<path fill-rule="evenodd" clip-rule="evenodd" d="M111.48 0.830688C117.423 2.28177 121.064 8.27588 119.613 14.2189L93.5772 120.852C92.1261 126.795 86.132 130.436 80.189 128.985C74.246 127.534 70.6045 121.54 72.0556 115.597L98.0916 8.96408C99.5427 3.02105 105.537 -0.620392 111.48 0.830688Z" fill="black"/>
<path d="M190.643 0.200012C190.759 3.76357 190.367 7.33526 189.474 10.7662C188.227 15.5594 186.037 19.948 183.077 23.5773C180.116 27.2069 176.467 29.9757 172.422 31.6567C171.424 32.0712 170.409 32.4166 169.383 32.6923H109.106C109.106 32.6923 109.106 32.6923 109.106 16.4462C109.106 0.200012 109.106 0.200012 109.106 0.200012H190.643Z" fill="black"/>
<path d="M109.106 0.200012C101.722 0.200012 96.7385 11.129 96.7385 20.1016C96.7385 29.0741 101.722 32.6923 109.106 32.6923L109.106 16.4462L109.106 0.200012Z" fill="black"/>
<path d="M1.36636 129.615C1.24986 126.052 1.64495 122.48 2.54387 119.049C3.79969 114.256 6.00484 109.867 8.98618 106.238C11.9677 102.608 15.6424 99.8397 19.7169 98.1587C20.7215 97.7442 21.7435 97.3988 22.7773 97.123H83.4795C83.4795 97.123 83.4801 97.123 83.4801 113.369C83.4801 129.615 83.4795 129.615 83.4795 129.615H1.36636Z" fill="black"/>
<path d="M83.4795 129.615C90.9157 129.615 95.2615 117.062 95.2615 108.089C95.2615 99.1167 90.9157 97.123 83.4795 97.123L83.4801 113.369L83.4795 129.615Z" fill="black"/>
<path d="M180.118 42.1447C180.186 44.1345 179.953 46.1288 179.423 48.0446C178.683 50.7209 177.383 53.1714 175.626 55.1979C173.868 57.2246 171.702 58.7706 169.3 59.7092C168.708 59.9407 168.105 60.1336 167.496 60.2875H131.712C131.712 60.2875 131.712 60.2875 131.712 51.2161C131.712 42.1447 131.712 42.1447 131.712 42.1447H180.118Z" fill="black"/>
<path d="M131.712 42.1447C127.329 42.1447 124.37 48.2471 124.37 53.2572C124.37 58.2672 127.329 60.2875 131.712 60.2875L131.712 51.2161L131.712 42.1447Z" fill="black"/>
<path d="M136.878 50.9389C137.81 47.3355 136.01 43.5509 132.857 42.4858C129.704 41.4206 126.393 43.4783 125.461 47.0816C124.529 50.685 108.554 112.45 108.554 112.45C108.824 112.52 109.099 112.585 109.378 112.643C111.67 113.121 114.139 113.165 116.471 112.769C118.265 112.464 119.916 111.91 121.304 111.153L136.878 50.9389Z" fill="black"/>
<path d="M11.8906 87.1908C11.8212 85.201 12.0565 83.2067 12.5918 81.2909C13.3396 78.6145 14.6528 76.164 16.4282 74.1375C18.2038 72.1109 20.3921 70.5648 22.8184 69.6262C23.4167 69.3948 24.0253 69.2019 24.641 69.0479H60.7896C60.7896 69.0479 60.79 69.0479 60.79 78.1194C60.79 87.1908 60.7896 87.1908 60.7896 87.1908H11.8906Z" fill="black"/>
<path d="M60.7896 87.1908C65.218 87.1908 68.2069 81.0883 68.2069 76.0783C68.2069 71.0683 65.218 69.0479 60.7896 69.0479L60.79 78.1194L60.7896 87.1908Z" fill="black"/>
<path d="M55.5712 78.3966C54.6297 81.9999 56.4484 85.7845 59.6335 86.8497C62.8185 87.9148 66.1637 85.8572 67.1052 82.2538L84.1846 16.8855C83.9115 16.8152 83.6338 16.7508 83.3519 16.6926C81.0363 16.2142 78.5428 16.1703 76.1868 16.5665C74.3747 16.8711 72.7065 17.4256 71.3038 18.1827L55.5712 78.3966Z" fill="black"/>
</svg>
